<?xml version="1.0" encoding="UTF-8" standalone="no"?>
<!DOCTYPE svg PUBLIC "-//W3C//DTD SVG 1.1//EN"
 "http://www.w3.org/Graphics/SVG/1.1/DTD/svg11.dtd">
<!-- Generated by graphviz version 3.0.0 (20220226.1711)
 -->
<!-- Title: dependencies Pages: 1 -->
<svg width="1121pt" height="247pt"
 viewBox="0.00 0.00 1121.00 246.80" xmlns="http://www.w3.org/2000/svg" xmlns:xlink="http://www.w3.org/1999/xlink">
<g id="graph0" class="graph" transform="scale(1 1) rotate(0) translate(4 242.8)">
<title>dependencies</title>
<polygon fill="white" stroke="transparent" points="-4,4 -4,-242.8 1117,-242.8 1117,4 -4,4"/>
<text text-anchor="middle" x="556.5" y="-8.2" font-family="sans-serif" font-size="14.00">dependencies</text>
<g id="clust1" class="cluster">
<title>cluster_ProductListModule</title>
<polygon fill="none" stroke="black" stroke-dasharray="1,5" points="8,-32.8 8,-230.8 1105,-230.8 1105,-32.8 8,-32.8"/>
</g>
<g id="clust10" class="cluster">
<title>cluster_ProductListModule_providers</title>
<polygon fill="none" stroke="black" points="911,-40.8 911,-92.8 1097,-92.8 1097,-40.8 911,-40.8"/>
</g>
<g id="clust7" class="cluster">
<title>cluster_ProductListModule_imports</title>
<polygon fill="none" stroke="black" points="745,-40.8 745,-92.8 903,-92.8 903,-40.8 745,-40.8"/>
</g>
<g id="clust8" class="cluster">
<title>cluster_ProductListModule_exports</title>
<polygon fill="none" stroke="black" points="185,-170.8 185,-222.8 919,-222.8 919,-170.8 185,-170.8"/>
</g>
<g id="clust2" class="cluster">
<title>cluster_ProductListModule_declarations</title>
<polygon fill="none" stroke="black" points="16,-40.8 16,-92.8 737,-92.8 737,-40.8 16,-40.8"/>
</g>
<!-- CreateProductPopupComponent -->
<g id="node1" class="node">
<title>CreateProductPopupComponent</title>
<polygon fill="#ffffb3" stroke="black" points="728.7,-84.8 531.3,-84.8 531.3,-48.8 728.7,-48.8 728.7,-84.8"/>
<text text-anchor="middle" x="630" y="-62.6" font-family="Times,serif" font-size="14.00">CreateProductPopupComponent</text>
</g>
<!-- ProductListModule -->
<g id="node5" class="node">
<title>ProductListModule</title>
<polygon fill="#8dd3c7" stroke="black" points="573.38,-149.8 570.38,-153.8 549.38,-153.8 546.38,-149.8 448.62,-149.8 448.62,-113.8 573.38,-113.8 573.38,-149.8"/>
<text text-anchor="middle" x="511" y="-127.6" font-family="Times,serif" font-size="14.00">ProductListModule</text>
</g>
<!-- CreateProductPopupComponent&#45;&gt;ProductListModule -->
<g id="edge1" class="edge">
<title>CreateProductPopupComponent&#45;&gt;ProductListModule</title>
<path fill="none" stroke="black" d="M552.42,-84.91C552.42,-84.91 552.42,-103.79 552.42,-103.79"/>
<polygon fill="black" stroke="black" points="548.92,-103.79 552.42,-113.79 555.92,-103.79 548.92,-103.79"/>
</g>
<!-- EditProductPopupComponent -->
<g id="node2" class="node">
<title>EditProductPopupComponent</title>
<polygon fill="#ffffb3" stroke="black" points="513,-84.8 329,-84.8 329,-48.8 513,-48.8 513,-84.8"/>
<text text-anchor="middle" x="421" y="-62.6" font-family="Times,serif" font-size="14.00">EditProductPopupComponent</text>
</g>
<!-- EditProductPopupComponent&#45;&gt;ProductListModule -->
<g id="edge2" class="edge">
<title>EditProductPopupComponent&#45;&gt;ProductListModule</title>
<path fill="none" stroke="black" d="M480.78,-84.91C480.78,-84.91 480.78,-103.79 480.78,-103.79"/>
<polygon fill="black" stroke="black" points="477.28,-103.79 480.78,-113.79 484.28,-103.79 477.28,-103.79"/>
</g>
<!-- NavbarComponent -->
<g id="node3" class="node">
<title>NavbarComponent</title>
<polygon fill="#ffffb3" stroke="black" points="311.03,-84.8 188.97,-84.8 188.97,-48.8 311.03,-48.8 311.03,-84.8"/>
<text text-anchor="middle" x="250" y="-62.6" font-family="Times,serif" font-size="14.00">NavbarComponent</text>
</g>
<!-- NavbarComponent&#45;&gt;ProductListModule -->
<g id="edge3" class="edge">
<title>NavbarComponent&#45;&gt;ProductListModule</title>
<path fill="none" stroke="black" d="M252.09,-84.83C252.09,-101.2 252.09,-122.8 252.09,-122.8 252.09,-122.8 438.33,-122.8 438.33,-122.8"/>
<polygon fill="black" stroke="black" points="438.33,-126.3 448.33,-122.8 438.33,-119.3 438.33,-126.3"/>
</g>
<!-- ProductListComponent -->
<g id="node4" class="node">
<title>ProductListComponent</title>
<polygon fill="#ffffb3" stroke="black" points="170.16,-84.8 23.84,-84.8 23.84,-48.8 170.16,-48.8 170.16,-84.8"/>
<text text-anchor="middle" x="97" y="-62.6" font-family="Times,serif" font-size="14.00">ProductListComponent</text>
</g>
<!-- ProductListComponent&#45;&gt;ProductListModule -->
<g id="edge4" class="edge">
<title>ProductListComponent&#45;&gt;ProductListModule</title>
<path fill="none" stroke="black" d="M97,-84.91C97,-104.14 97,-131.8 97,-131.8 97,-131.8 438.57,-131.8 438.57,-131.8"/>
<polygon fill="black" stroke="black" points="438.57,-135.3 448.57,-131.8 438.57,-128.3 438.57,-135.3"/>
</g>
<!-- CreateProductPopupComponent  -->
<g id="node7" class="node">
<title>CreateProductPopupComponent </title>
<polygon fill="#fb8072" stroke="black" points="911.2,-214.8 710.8,-214.8 710.8,-178.8 911.2,-178.8 911.2,-214.8"/>
<text text-anchor="middle" x="811" y="-192.6" font-family="Times,serif" font-size="14.00">CreateProductPopupComponent </text>
</g>
<!-- ProductListModule&#45;&gt;CreateProductPopupComponent  -->
<g id="edge6" class="edge">
<title>ProductListModule&#45;&gt;CreateProductPopupComponent </title>
<path fill="none" stroke="black" stroke-dasharray="5,2" d="M573.59,-140.8C635.05,-140.8 719.62,-140.8 719.62,-140.8 719.62,-140.8 719.62,-168.77 719.62,-168.77"/>
<polygon fill="black" stroke="black" points="716.13,-168.77 719.62,-178.77 723.13,-168.77 716.13,-168.77"/>
</g>
<!-- EditProductPopupComponent  -->
<g id="node8" class="node">
<title>EditProductPopupComponent </title>
<polygon fill="#fb8072" stroke="black" points="692.5,-214.8 505.5,-214.8 505.5,-178.8 692.5,-178.8 692.5,-214.8"/>
<text text-anchor="middle" x="599" y="-192.6" font-family="Times,serif" font-size="14.00">EditProductPopupComponent </text>
</g>
<!-- ProductListModule&#45;&gt;EditProductPopupComponent  -->
<g id="edge7" class="edge">
<title>ProductListModule&#45;&gt;EditProductPopupComponent </title>
<path fill="none" stroke="black" stroke-dasharray="5,2" d="M539.35,-149.91C539.35,-149.91 539.35,-168.79 539.35,-168.79"/>
<polygon fill="black" stroke="black" points="535.85,-168.79 539.35,-178.79 542.85,-168.79 535.85,-168.79"/>
</g>
<!-- NavbarComponent  -->
<g id="node9" class="node">
<title>NavbarComponent </title>
<polygon fill="#fb8072" stroke="black" points="487.03,-214.8 360.97,-214.8 360.97,-178.8 487.03,-178.8 487.03,-214.8"/>
<text text-anchor="middle" x="424" y="-192.6" font-family="Times,serif" font-size="14.00">NavbarComponent </text>
</g>
<!-- ProductListModule&#45;&gt;NavbarComponent  -->
<g id="edge8" class="edge">
<title>ProductListModule&#45;&gt;NavbarComponent </title>
<path fill="none" stroke="black" stroke-dasharray="5,2" d="M467.79,-149.91C467.79,-149.91 467.79,-168.79 467.79,-168.79"/>
<polygon fill="black" stroke="black" points="464.29,-168.79 467.79,-178.79 471.29,-168.79 464.29,-168.79"/>
</g>
<!-- ProductListComponent  -->
<g id="node10" class="node">
<title>ProductListComponent </title>
<polygon fill="#fb8072" stroke="black" points="343.16,-214.8 192.84,-214.8 192.84,-178.8 343.16,-178.8 343.16,-214.8"/>
<text text-anchor="middle" x="268" y="-192.6" font-family="Times,serif" font-size="14.00">ProductListComponent </text>
</g>
<!-- ProductListModule&#45;&gt;ProductListComponent  -->
<g id="edge9" class="edge">
<title>ProductListModule&#45;&gt;ProductListComponent </title>
<path fill="none" stroke="black" stroke-dasharray="5,2" d="M448.33,-140.8C398.13,-140.8 336.04,-140.8 336.04,-140.8 336.04,-140.8 336.04,-168.77 336.04,-168.77"/>
<polygon fill="black" stroke="black" points="332.54,-168.77 336.04,-178.77 339.54,-168.77 332.54,-168.77"/>
</g>
<!-- AuthenticationModule -->
<g id="node6" class="node">
<title>AuthenticationModule</title>
<polygon fill="#8dd3c7" stroke="black" points="895.25,-84.8 892.25,-88.8 871.25,-88.8 868.25,-84.8 752.75,-84.8 752.75,-48.8 895.25,-48.8 895.25,-84.8"/>
<text text-anchor="middle" x="824" y="-62.6" font-family="Times,serif" font-size="14.00">AuthenticationModule</text>
</g>
<!-- AuthenticationModule&#45;&gt;ProductListModule -->
<g id="edge5" class="edge">
<title>AuthenticationModule&#45;&gt;ProductListModule</title>
<path fill="none" stroke="black" d="M824,-84.83C824,-101.2 824,-122.8 824,-122.8 824,-122.8 583.59,-122.8 583.59,-122.8"/>
<polygon fill="black" stroke="black" points="583.59,-119.3 573.59,-122.8 583.59,-126.3 583.59,-119.3"/>
</g>
<!-- ProductListService -->
<g id="node11" class="node">
<title>ProductListService</title>
<ellipse fill="#fdb462" stroke="black" cx="1004" cy="-66.8" rx="85.11" ry="18"/>
<text text-anchor="middle" x="1004" y="-62.6" font-family="Times,serif" font-size="14.00">ProductListService</text>
</g>
<!-- ProductListService&#45;&gt;ProductListModule -->
<g id="edge10" class="edge">
<title>ProductListService&#45;&gt;ProductListModule</title>
<path fill="none" stroke="black" d="M1004,-84.91C1004,-104.14 1004,-131.8 1004,-131.8 1004,-131.8 583.44,-131.8 583.44,-131.8"/>
<polygon fill="black" stroke="black" points="583.44,-128.3 573.44,-131.8 583.44,-135.3 583.44,-128.3"/>
</g>
</g>
</svg>
