<?xml version="1.0" encoding="UTF-8" standalone="no"?>
<!DOCTYPE svg PUBLIC "-//W3C//DTD SVG 1.1//EN"
 "http://www.w3.org/Graphics/SVG/1.1/DTD/svg11.dtd">
<!-- Generated by graphviz version 3.0.0 (20220226.1711)
 -->
<!-- Title: dependencies Pages: 1 -->
<svg width="494pt" height="247pt"
 viewBox="0.00 0.00 494.00 246.80" xmlns="http://www.w3.org/2000/svg" xmlns:xlink="http://www.w3.org/1999/xlink">
<g id="graph0" class="graph" transform="scale(1 1) rotate(0) translate(4 242.8)">
<title>dependencies</title>
<polygon fill="white" stroke="transparent" points="-4,4 -4,-242.8 490,-242.8 490,4 -4,4"/>
<text text-anchor="middle" x="243" y="-8.2" font-family="sans-serif" font-size="14.00">dependencies</text>
<g id="clust1" class="cluster">
<title>cluster_AuthenticationModule</title>
<polygon fill="none" stroke="black" stroke-dasharray="1,5" points="8,-32.8 8,-230.8 478,-230.8 478,-32.8 8,-32.8"/>
</g>
<g id="clust2" class="cluster">
<title>cluster_AuthenticationModule_declarations</title>
<polygon fill="none" stroke="black" points="340,-40.8 340,-92.8 470,-92.8 470,-40.8 340,-40.8"/>
</g>
<g id="clust5" class="cluster">
<title>cluster_AuthenticationModule_exports</title>
<polygon fill="none" stroke="black" points="194,-170.8 194,-222.8 328,-222.8 328,-170.8 194,-170.8"/>
</g>
<g id="clust7" class="cluster">
<title>cluster_AuthenticationModule_providers</title>
<polygon fill="none" stroke="black" points="16,-40.8 16,-92.8 332,-92.8 332,-40.8 16,-40.8"/>
</g>
<!-- LoginComponent -->
<g id="node1" class="node">
<title>LoginComponent</title>
<polygon fill="#ffffb3" stroke="black" points="462.27,-84.8 347.73,-84.8 347.73,-48.8 462.27,-48.8 462.27,-84.8"/>
<text text-anchor="middle" x="405" y="-62.6" font-family="Times,serif" font-size="14.00">LoginComponent</text>
</g>
<!-- AuthenticationModule -->
<g id="node2" class="node">
<title>AuthenticationModule</title>
<polygon fill="#8dd3c7" stroke="black" points="332.25,-149.8 329.25,-153.8 308.25,-153.8 305.25,-149.8 189.75,-149.8 189.75,-113.8 332.25,-113.8 332.25,-149.8"/>
<text text-anchor="middle" x="261" y="-127.6" font-family="Times,serif" font-size="14.00">AuthenticationModule</text>
</g>
<!-- LoginComponent&#45;&gt;AuthenticationModule -->
<g id="edge1" class="edge">
<title>LoginComponent&#45;&gt;AuthenticationModule</title>
<path fill="none" stroke="black" d="M347.59,-66.8C336.49,-66.8 328.22,-66.8 328.22,-66.8 328.22,-66.8 328.22,-103.69 328.22,-103.69"/>
<polygon fill="black" stroke="black" points="324.72,-103.69 328.22,-113.69 331.72,-103.69 324.72,-103.69"/>
</g>
<!-- LoginComponent  -->
<g id="node3" class="node">
<title>LoginComponent </title>
<polygon fill="#fb8072" stroke="black" points="320.27,-214.8 201.73,-214.8 201.73,-178.8 320.27,-178.8 320.27,-214.8"/>
<text text-anchor="middle" x="261" y="-192.6" font-family="Times,serif" font-size="14.00">LoginComponent </text>
</g>
<!-- AuthenticationModule&#45;&gt;LoginComponent  -->
<g id="edge2" class="edge">
<title>AuthenticationModule&#45;&gt;LoginComponent </title>
<path fill="none" stroke="black" stroke-dasharray="5,2" d="M261,-149.91C261,-149.91 261,-168.79 261,-168.79"/>
<polygon fill="black" stroke="black" points="257.5,-168.79 261,-178.79 264.5,-168.79 257.5,-168.79"/>
</g>
<!-- LoginService -->
<g id="node4" class="node">
<title>LoginService</title>
<ellipse fill="#fdb462" stroke="black" cx="261" cy="-66.8" rx="63.12" ry="18"/>
<text text-anchor="middle" x="261" y="-62.6" font-family="Times,serif" font-size="14.00">LoginService</text>
</g>
<!-- LoginService&#45;&gt;AuthenticationModule -->
<g id="edge3" class="edge">
<title>LoginService&#45;&gt;AuthenticationModule</title>
<path fill="none" stroke="black" d="M261,-84.91C261,-84.91 261,-103.79 261,-103.79"/>
<polygon fill="black" stroke="black" points="257.5,-103.79 261,-113.79 264.5,-103.79 257.5,-103.79"/>
</g>
<!-- TokenInterceptor -->
<g id="node5" class="node">
<title>TokenInterceptor</title>
<ellipse fill="#fdb462" stroke="black" cx="102" cy="-66.8" rx="78.13" ry="18"/>
<text text-anchor="middle" x="102" y="-62.6" font-family="Times,serif" font-size="14.00">TokenInterceptor</text>
</g>
<!-- TokenInterceptor&#45;&gt;AuthenticationModule -->
<g id="edge4" class="edge">
<title>TokenInterceptor&#45;&gt;AuthenticationModule</title>
<path fill="none" stroke="black" d="M180.24,-66.8C188.4,-66.8 193.78,-66.8 193.78,-66.8 193.78,-66.8 193.78,-103.69 193.78,-103.69"/>
<polygon fill="black" stroke="black" points="190.28,-103.69 193.78,-113.69 197.28,-103.69 190.28,-103.69"/>
</g>
</g>
</svg>
