<?xml version="1.0" encoding="UTF-8" standalone="no"?>
<!DOCTYPE svg PUBLIC "-//W3C//DTD SVG 1.1//EN"
 "http://www.w3.org/Graphics/SVG/1.1/DTD/svg11.dtd">
<!-- Generated by graphviz version 3.0.0 (20220226.1711)
 -->
<!-- Title: dependencies Pages: 1 -->
<svg width="618pt" height="247pt"
 viewBox="0.00 0.00 618.00 246.80" xmlns="http://www.w3.org/2000/svg" xmlns:xlink="http://www.w3.org/1999/xlink">
<g id="graph0" class="graph" transform="scale(1 1) rotate(0) translate(4 242.8)">
<title>dependencies</title>
<polygon fill="white" stroke="transparent" points="-4,4 -4,-242.8 614,-242.8 614,4 -4,4"/>
<text text-anchor="middle" x="305" y="-8.2" font-family="sans-serif" font-size="14.00">dependencies</text>
<g id="clust1" class="cluster">
<title>cluster_AppModule</title>
<polygon fill="none" stroke="black" stroke-dasharray="1,5" points="8,-32.8 8,-230.8 602,-230.8 602,-32.8 8,-32.8"/>
</g>
<g id="clust6" class="cluster">
<title>cluster_AppModule_bootstrap</title>
<polygon fill="none" stroke="black" points="253,-170.8 253,-222.8 377,-222.8 377,-170.8 253,-170.8"/>
</g>
<g id="clust2" class="cluster">
<title>cluster_AppModule_declarations</title>
<polygon fill="none" stroke="black" points="472,-40.8 472,-92.8 594,-92.8 594,-40.8 472,-40.8"/>
</g>
<g id="clust4" class="cluster">
<title>cluster_AppModule_imports</title>
<polygon fill="none" stroke="black" points="16,-40.8 16,-92.8 464,-92.8 464,-40.8 16,-40.8"/>
</g>
<!-- AppComponent -->
<g id="node1" class="node">
<title>AppComponent</title>
<polygon fill="#ffffb3" stroke="black" points="585.94,-84.8 480.06,-84.8 480.06,-48.8 585.94,-48.8 585.94,-84.8"/>
<text text-anchor="middle" x="533" y="-62.6" font-family="Times,serif" font-size="14.00">AppComponent</text>
</g>
<!-- AppModule -->
<g id="node2" class="node">
<title>AppModule</title>
<polygon fill="#8dd3c7" stroke="black" points="356.66,-149.8 353.66,-153.8 332.66,-153.8 329.66,-149.8 273.34,-149.8 273.34,-113.8 356.66,-113.8 356.66,-149.8"/>
<text text-anchor="middle" x="315" y="-127.6" font-family="Times,serif" font-size="14.00">AppModule</text>
</g>
<!-- AppComponent&#45;&gt;AppModule -->
<g id="edge1" class="edge">
<title>AppComponent&#45;&gt;AppModule</title>
<path fill="none" stroke="black" d="M533,-84.91C533,-104.14 533,-131.8 533,-131.8 533,-131.8 366.77,-131.8 366.77,-131.8"/>
<polygon fill="black" stroke="black" points="366.77,-128.3 356.77,-131.8 366.77,-135.3 366.77,-128.3"/>
</g>
<!-- AppComponent  -->
<g id="node6" class="node">
<title>AppComponent </title>
<polygon fill="#80b1d3" stroke="black" points="369.44,-214.8 260.56,-214.8 260.56,-178.8 369.44,-178.8 369.44,-214.8"/>
<text text-anchor="middle" x="315" y="-192.6" font-family="Times,serif" font-size="14.00">AppComponent </text>
</g>
<!-- AppModule&#45;&gt;AppComponent  -->
<g id="edge5" class="edge">
<title>AppModule&#45;&gt;AppComponent </title>
<path fill="none" stroke="black" stroke-dasharray="1,5" d="M315,-149.91C315,-149.91 315,-168.79 315,-168.79"/>
<polygon fill="black" stroke="black" points="311.5,-168.79 315,-178.79 318.5,-168.79 311.5,-168.79"/>
</g>
<!-- AppRoutingModule -->
<g id="node3" class="node">
<title>AppRoutingModule</title>
<polygon fill="#8dd3c7" stroke="black" points="456.28,-84.8 453.28,-88.8 432.28,-88.8 429.28,-84.8 327.72,-84.8 327.72,-48.8 456.28,-48.8 456.28,-84.8"/>
<text text-anchor="middle" x="392" y="-62.6" font-family="Times,serif" font-size="14.00">AppRoutingModule</text>
</g>
<!-- AppRoutingModule&#45;&gt;AppModule -->
<g id="edge2" class="edge">
<title>AppRoutingModule&#45;&gt;AppModule</title>
<path fill="none" stroke="black" d="M342.22,-84.91C342.22,-84.91 342.22,-103.79 342.22,-103.79"/>
<polygon fill="black" stroke="black" points="338.72,-103.79 342.22,-113.79 345.72,-103.79 338.72,-103.79"/>
</g>
<!-- AuthenticationModule -->
<g id="node4" class="node">
<title>AuthenticationModule</title>
<polygon fill="#8dd3c7" stroke="black" points="309.25,-84.8 306.25,-88.8 285.25,-88.8 282.25,-84.8 166.75,-84.8 166.75,-48.8 309.25,-48.8 309.25,-84.8"/>
<text text-anchor="middle" x="238" y="-62.6" font-family="Times,serif" font-size="14.00">AuthenticationModule</text>
</g>
<!-- AuthenticationModule&#45;&gt;AppModule -->
<g id="edge3" class="edge">
<title>AuthenticationModule&#45;&gt;AppModule</title>
<path fill="none" stroke="black" d="M291.27,-84.91C291.27,-84.91 291.27,-103.79 291.27,-103.79"/>
<polygon fill="black" stroke="black" points="287.77,-103.79 291.27,-113.79 294.77,-103.79 287.77,-103.79"/>
</g>
<!-- ProductListModule -->
<g id="node5" class="node">
<title>ProductListModule</title>
<polygon fill="#8dd3c7" stroke="black" points="148.38,-84.8 145.38,-88.8 124.38,-88.8 121.38,-84.8 23.62,-84.8 23.62,-48.8 148.38,-48.8 148.38,-84.8"/>
<text text-anchor="middle" x="86" y="-62.6" font-family="Times,serif" font-size="14.00">ProductListModule</text>
</g>
<!-- ProductListModule&#45;&gt;AppModule -->
<g id="edge4" class="edge">
<title>ProductListModule&#45;&gt;AppModule</title>
<path fill="none" stroke="black" d="M86,-84.91C86,-104.14 86,-131.8 86,-131.8 86,-131.8 263.26,-131.8 263.26,-131.8"/>
<polygon fill="black" stroke="black" points="263.26,-135.3 273.26,-131.8 263.26,-128.3 263.26,-135.3"/>
</g>
</g>
</svg>
